<svg height="486pt" viewBox="0 -9 486.21597 486" width="486pt" xmlns="http://www.w3.org/2000/svg" xmlns:xlink="http://www.w3.org/1999/xlink"><linearGradient id="lg1"><stop offset=".322" stop-color="#a163f5"/><stop offset=".466" stop-color="#b074ee"/><stop offset=".752" stop-color="#d8a1dd"/><stop offset=".898" stop-color="#efbad3"/></linearGradient><linearGradient id="linear0" gradientUnits="userSpaceOnUse" x1="243.0933" x2="243.0933" xlink:href="#lg1" y1="429.107985" y2="-16.027915"/><linearGradient id="linear1" gradientUnits="userSpaceOnUse" x1="193.7435" x2="193.7435" xlink:href="#lg1" y1="429.107985" y2="-16.027915"/><path d="m474.800781 404.007812-81.601562-78.5c-2.300781-2.199218-6-2.199218-8.300781 0l-18.898438 18.199219-30.898438-29.699219c32.5-33.398437 52.5-78.199218 52.5-127.5-.101562-102.800781-87-186.398437-193.902343-186.398437-106.800781 0-193.699219 83.597656-193.699219 186.5 0 102.898437 86.898438 186.5 193.800781 186.5 51.300781 0 97.898438-19.300781 132.597657-50.703125l30.902343 29.703125-18.800781 18c-.101562.097656-.101562.097656-.199219.199219-2.300781 2.398437-2.199219 6.199218.199219 8.5l81.699219 78.5c7.402343 7 17.101562 10.898437 27.300781 10.800781 10.199219 0 19.898438-3.902344 27.300781-10.902344l1.5-1.5c13.800781-14.597656 13.097657-37.800781-1.5-51.699219zm-281.101562-43c-100.199219 0-181.800781-78.300781-181.800781-174.5 0-96.199218 81.601562-174.398437 181.800781-174.398437s181.800781 78.296875 181.800781 174.5c0 96.199219-81.5 174.398437-181.800781 174.398437zm273.800781 86.5c-.300781.300782-.601562.699219-1 1-10.699219 10.101563-27.300781 10.101563-38 0l-77.101562-74.101562 37.703124-36.199219 77.5 74.5c9.796876 9.402344 10.199219 24.902344.898438 34.800781zm0 0" fill="url(#linear0)"/><path d="m306.898438 114.007812h-51.097657c3.097657-9.898437 1.398438-21-5.101562-30.898437-.199219-.402344-.5-.703125-.800781-1-11.199219-10.703125-24.898438-14-37.796876-9-3.800781 1.5-7.300781 3.597656-10.402343 6.296875-2.597657-17.5-16.800781-29.699219-35.699219-29.699219-19.898438 0-36.101562 17.300781-36.101562 38.601563 0 9.300781 3.101562 18.398437 8.902343 25.699218h-58.199219c-3.300781 0-6 2.699219-6 6v48.300782c0 3.300781 2.699219 6 6 6h8.398438v135.5c0 7.5 6.101562 13.5 13.5 13.5h182c7.5 0 13.5-6.101563 13.5-13.5v-135.402344h8.699219c3.300781 0 6-2.699219 6-6v-48.296875c.199219-3.402344-2.5-6.101563-5.800781-6.101563zm-104.796876-10.398437c.699219-8.703125 6.199219-16.203125 14.296876-19.402344 4.800781-1.898437 14.402343-3.5 24.601562 6 5 8 5.601562 16.601563 1.800781 23.699219h-40.699219zm-36.101562-41.902344c14.199219 0 24.101562 9.699219 24.101562 23.5v28.800781h-31.300781c-10-3.300781-17-13.699218-17-25.699218 0-14.601563 10.898438-26.601563 24.199219-26.601563zm-63.398438 249.699219c-.902343 0-1.5-.699219-1.5-1.5v-21.699219l113.796876-113.898437h45.5l-137.097657 137.097656zm50.199219-137h45.199219l-96.898438 96.800781v-45.097656zm-51.699219 34.703125v-34.703125h34.796876zm185 100.796875c0 .902344-.703124 1.5-1.5 1.5h-20.300781l21.898438-21.898438v20.398438zm0-37.296875-38.800781 38.796875h-45.199219l84-84zm0-62.203125-101 101h-44.902343l137.101562-137.097656h8.800781zm14.796876-48h-214.296876v-3.097656h214.296876zm0-15.097656h-214.296876v-21.199219h214.199219v21.199219zm0 0" fill="url(#linear1)"/></svg>