<?xml version="1.0"?>
<svg xmlns="http://www.w3.org/2000/svg" id="Layer_1" data-name="Layer 1" viewBox="0 0 512 512" width="512" height="512"><title>Goods Transportion</title><path d="M63,133.945A33.017,33.017,0,0,1,96.175,101H297.048c.115,0,.228.007.344.009A32.825,32.825,0,0,0,267.048,81H66.175A33.017,33.017,0,0,0,33,113.945V329H63Z" style="fill:#d4e1f4"/><path d="M423.967,310l13.586-3.453L425.5,258.2a6.9,6.9,0,0,0-6.793-5.2H330v14h83.234Z" style="fill:#1ae5be"/><path d="M423.967,310l13.586-3.453L425.5,258.2a6.9,6.9,0,0,0-6.793-5.2H330v14h83.234Z" style="fill:#1ae5be"/><path d="M459.839,303.952,433.658,197h10.158c3.867,0,7.184-2.731,7.184-6.6V166.549C451,144.69,429.654,127,403.642,127H314V113.945A46.842,46.842,0,0,0,267.048,67H66.175A47.032,47.032,0,0,0,19,113.945v278.6C19,398.614,23.935,404,30,404H78V390H33V343H323v47H164v14H357.451c1.893,0-.451-14-.451-14H337V315H445.825C460.448,315,479,335.04,479,357.378V390H443s-2.09,14-.2,14H482c6.065,0,11-5.386,11-11.451V357.378C493,336.675,479.087,312.274,459.839,303.952ZM151.867,329H33V113.945A33.017,33.017,0,0,1,66.175,81H267.048A32.827,32.827,0,0,1,300,113.945V329ZM314,329V141h89.642C421.624,141,437,152.649,437,166.549V183H330.323A7.635,7.635,0,0,0,323,190.4V329Zm23-132h82.242L444.69,301H337Z" style="fill:#0635c9"/><path d="M400.127,345.858a49.742,49.742,0,0,0-49.686,49.686c0,.4,0,.81.012,1.166a49.688,49.688,0,0,0,99.347.044c.012-.4.012-.81.012-1.21A49.742,49.742,0,0,0,400.127,345.858Zm35.678,50.529a35.688,35.688,0,0,1-71.357-.044c-.008-.264-.007-.535-.007-.8a35.686,35.686,0,1,1,71.371,0C435.812,395.808,435.813,396.079,435.805,396.387Z" style="fill:#1ae5be"/><path d="M157.111,361.522c-.068-.073-.138-.147-.209-.219a49.653,49.653,0,0,0-71.98,0c-.07.072-.142.147-.214.225l-.105.11a49.5,49.5,0,0,0-13.375,33.9c0,.4,0,.81.011,1.166a49.688,49.688,0,0,0,99.347.044c.012-.4.013-.81.013-1.21a49.5,49.5,0,0,0-13.376-33.9Zm-.52,34.865a35.688,35.688,0,0,1-71.357-.044c-.007-.264-.006-.535-.006-.8A35.546,35.546,0,0,1,94.833,371.2h0l.076-.08.132-.136a35.654,35.654,0,0,1,51.745,0l.108.112.1.105a35.541,35.541,0,0,1,9.607,24.347C156.6,395.808,156.6,396.079,156.591,396.387Z" style="fill:#1ae5be"/></svg>
